<svg width="42" height="42" viewBox="0 0 42 42" fill="none" xmlns="http://www.w3.org/2000/svg">
<circle cx="21" cy="21" r="21" fill="#F9F0E5"/>
<path d="M21 8V34" stroke="#15005B" stroke-width="1.6" stroke-miterlimit="10" stroke-linecap="round" stroke-linejoin="round"/>
<path d="M20.9998 27.9998C17.1298 27.9998 13.9998 24.8698 13.9998 20.9998C13.9998 17.1298 17.1298 13.9998 20.9998 13.9998" stroke="#15005B" stroke-width="1.6" stroke-miterlimit="10" stroke-linecap="round" stroke-linejoin="round"/>
<path d="M11.8098 11.8105L13.9298 13.9305" stroke="#15005B" stroke-width="1.6" stroke-miterlimit="10" stroke-linecap="round" stroke-linejoin="round"/>
<path d="M8 21H11" stroke="#15005B" stroke-width="1.6" stroke-miterlimit="10" stroke-linecap="round" stroke-linejoin="round"/>
<path d="M11.8098 30.1901L13.9298 28.0701" stroke="#15005B" stroke-width="1.6" stroke-miterlimit="10" stroke-linecap="round" stroke-linejoin="round"/>
<path d="M21 17.5498C22.2 15.4298 24.48 13.9998 27.09 13.9998C27.25 13.9998 27.4 14.0098 27.56 14.0198C25.89 14.8998 24.76 16.6498 24.76 18.6598C24.76 21.5598 27.11 23.9098 30.01 23.9098C31.61 23.9098 33.04 23.1898 34 22.0598C33.48 25.4298 30.59 27.9998 27.09 27.9998C24.48 27.9998 22.2 26.5698 21 24.4498" stroke="#15005B" stroke-width="1.6" stroke-miterlimit="10" stroke-linecap="round" stroke-linejoin="round"/>
</svg>
