<svg width="42" height="42" viewBox="0 0 42 42" fill="none" xmlns="http://www.w3.org/2000/svg">
<circle cx="21" cy="21" r="21" fill="#F9F0E5"/>
<path d="M27.303 15.9541H27.1717C26.0552 12.9941 23.313 11 20.2121 11C16.1996 11 12.9143 14.3283 12.735 18.4905C10.0619 18.8889 8 21.3049 8 24.2164C8 27.4055 10.4741 30 13.5152 30H27.303C30.9957 30 34 26.8495 34 22.977C34 19.1046 30.9957 15.9541 27.303 15.9541ZM27.303 27.5213H13.5152C11.7774 27.5213 10.3636 26.0387 10.3636 24.2164C10.3636 22.3941 11.7774 20.9115 13.5152 20.9115H13.9091C14.5618 20.9115 15.0909 20.3566 15.0909 19.6721V18.8491C15.0909 15.8878 17.3883 13.4786 20.2121 13.4786C22.5493 13.4786 24.5886 15.1335 25.1713 17.5029C25.3059 18.0503 25.7767 18.4328 26.3157 18.4328H27.303C29.6924 18.4328 31.6364 20.4713 31.6364 22.977C31.6364 25.4828 29.6924 27.5213 27.303 27.5213Z" fill="#01005B"/>
</svg>
