<svg width="42" height="42" viewBox="0 0 42 42" fill="none" xmlns="http://www.w3.org/2000/svg">
<circle cx="21" cy="21" r="21" fill="#F9F0E5"/>
<path d="M12.009 16.5696C14.1442 14.7453 15.8308 13.3029 20.4079 15.8763C22.6066 17.112 24.38 17.579 25.8552 17.5766C28.4402 17.5766 30.1158 16.1463 31.5641 14.9095C31.8127 14.6943 31.9673 14.3912 31.9951 14.0645C32.0229 13.7378 31.9218 13.4131 31.7132 13.1594C31.6114 13.0348 31.4856 12.9319 31.3431 12.8566C31.2007 12.7813 31.0445 12.7352 30.8838 12.721C30.7232 12.7068 30.5613 12.7249 30.4077 12.7741C30.2542 12.8232 30.1121 12.9026 29.9899 13.0073C27.856 14.8341 26.1681 16.2765 21.591 13.7006C15.5436 10.3037 12.7106 12.724 10.4348 14.6699C10.1864 14.8852 10.0321 15.1884 10.0045 15.5151C9.97685 15.8418 10.0782 16.1663 10.287 16.42C10.3888 16.5443 10.5147 16.647 10.6571 16.7221C10.7995 16.7971 10.9557 16.843 11.1162 16.8569C11.2768 16.8709 11.4385 16.8526 11.5919 16.8033C11.7452 16.7539 11.8871 16.6744 12.009 16.5696ZM29.9899 19.2184C27.856 21.0427 26.1681 22.4876 21.591 19.9117C15.5436 16.5124 12.7106 18.9338 10.4348 20.8785C10.1864 21.0939 10.0321 21.3971 10.0045 21.7238C9.97685 22.0505 10.0782 22.375 10.287 22.6286C10.3886 22.7531 10.5143 22.8561 10.6567 22.9313C10.799 23.0066 10.9551 23.0527 11.1157 23.0669C11.2763 23.081 11.4381 23.063 11.5915 23.0139C11.745 22.9647 11.8869 22.8854 12.009 22.7807C14.1442 20.9552 15.8308 19.5128 20.4079 22.085C22.6066 23.3231 24.38 23.7877 25.8552 23.7877C28.4402 23.7877 30.1158 22.3574 31.5641 21.1181C31.8129 20.9033 31.9676 20.6004 31.9955 20.2738C32.0233 19.9472 31.922 19.6227 31.7132 19.3692C31.6114 19.2447 31.4856 19.1417 31.3431 19.0664C31.2006 18.9911 31.0443 18.9451 30.8836 18.931C30.7229 18.917 30.561 18.9352 30.4075 18.9845C30.2539 19.0339 30.1119 19.1134 29.9899 19.2184ZM29.9899 25.4283C27.856 27.255 26.1681 28.6975 21.591 26.124C15.5436 22.7247 12.7106 25.145 10.4348 27.0909C10.1864 27.3062 10.0321 27.6094 10.0045 27.9361C9.97685 28.2628 10.0782 28.5873 10.287 28.841C10.3887 28.9654 10.5145 29.0683 10.657 29.1434C10.7994 29.2186 10.9556 29.2645 11.1162 29.2784C11.2768 29.2924 11.4386 29.2741 11.592 29.2247C11.7453 29.1752 11.8872 29.0956 12.009 28.9906C14.1442 27.1663 15.8308 25.7251 20.4079 28.2973C22.6066 29.533 24.38 30 25.8552 30C28.4402 30 30.1158 28.5673 31.5641 27.3305C31.8127 27.1153 31.9673 26.8122 31.9951 26.4855C32.0229 26.1588 31.9218 25.8341 31.7132 25.5803C31.6113 25.456 31.4854 25.3531 31.343 25.2779C31.2005 25.2028 31.0444 25.1567 30.8838 25.1425C30.7232 25.1284 30.5613 25.1464 30.4078 25.1954C30.2543 25.2445 30.1122 25.3237 29.9899 25.4283Z" fill="#01005B"/>
</svg>
